<svg id="Layer_1" data-name="Layer 1" xmlns="http://www.w3.org/2000/svg" viewBox="0 0 593.29 353.58"><defs><style>.cls-1{fill:#5dbb56;}.cls-2{fill:#ef5d67;}.cls-3{fill:#f8f062;}.cls-4{fill:#5e68af;}.cls-5{fill:#424244;}.cls-6{fill:#fefefe;}.cls-7{fill:#59585d;}.cls-8{fill:#48494b;}.cls-9{fill:#505153;}.cls-10{fill:#4b4a4f;}.cls-11{fill:#f68c37;}.cls-12{fill:#f3f4f6;}.cls-13{fill:#8c5d4f;}.cls-14{fill:#e6545c;}.cls-15{fill:#fcd0b3;}.cls-16{fill:#765a44;}.cls-17{fill:#474fa1;}.cls-18{fill:#fbd0b3;}.cls-19{fill:#c3986c;}.cls-20{fill:#856439;}.cls-21{fill:#fdfdfd;}.cls-22{fill:#f3c7a9;}.cls-23{fill:#bbbcbe;}.cls-24{fill:#f7cfb4;}.cls-25{fill:#f3c8ad;}.cls-26{fill:#ed4e54;}.cls-27{fill:#f8ceb3;}.cls-28{fill:#5f4937;}.cls-29{fill:#f7ceb2;}.cls-30{fill:#85c653;}.cls-31{fill:#5cbb50;}.cls-32{fill:#da5055;}.cls-33{fill:#464446;}.cls-34{fill:#cbc149;}.cls-35{fill:#e4da55;}.cls-36{fill:#9dc28f;}.cls-37{fill:#65c3e3;}.cls-38{fill:#d2c140;}.cls-39{fill:#5962ac;}.cls-40{fill:#515aa8;}.cls-41{fill:#f4d0b8;}.cls-42{fill:#61615f;}.cls-43{fill:#fbcfb2;}.cls-44{fill:#cc924a;}.cls-45{fill:#846439;}.cls-46{fill:#84643a;}.cls-47{fill:#65c09e;}.cls-48{fill:#e1baa1;}.cls-49{fill:#4f4e50;}.cls-50{fill:#ef5e67;}.cls-51{fill:#f0f0f0;}.cls-52{fill:#edefef;}.cls-53{fill:#40b24b;}.cls-54{fill:#5ebb56;}.cls-55{fill:#5899a6;}.cls-56{fill:#fbd0b2;}</style></defs><title>Teamworksvg</title><path class="cls-1" d="M494,428.94l.14,15.11c2.53,3.47,2,6-2.09,7.79-16,7.07-31.53,14.87-48,21.26-20.24,7.85-40.74,7.19-60.56-1.29-13.94-6-27.68-12.23-41.45-18.44-2.2-1-4.92-1.73-5.32-4.17-.05-19.62-.31-39.24.13-58.85,1.67-2.28,3.87-1.18,5.72-.34q15.5,7,31.12,13.84c8.79,3.82,17.1,8.44,27.28,10.12a84.28,84.28,0,0,0,34.29-1c2.34-.58,4.67-1.53,7.27-.71,2.42.77,1.51,3.3,3.71,4.2A232.89,232.89,0,0,0,471.88,429c3.28,1.38,6.73.2,10.08,0,2.88-.17,5.69-.84,8.59-.95C491.84,428,493.24,427.75,494,428.94Z" transform="translate(-98.16 -173.15)"/><path class="cls-2" d="M388.81,226.81a93.63,93.63,0,0,1,33.71-.58,47.55,47.55,0,0,1,10.82,2.87q26.09,11.53,52.07,23.2a1.2,1.2,0,0,1,.16.85c-1,1.77-2.88,2.79-5,3.72-7.3,3.22-14.55,6.51-22.25,10a21.68,21.68,0,0,0,7.84,1.44,23.21,23.21,0,0,1,10.58,3.07c3.7,2.19,4.44,4.71,2.55,8-5.15,7.81-23.24,7.54-31,3.41a10.58,10.58,0,0,1-4.26-4.69c-.73-1.3-1.31-2.72-3.5-3-4.29,1.09-7.88,3.19-11.74,4.89-5,2.21-10.05,4.43-15,6.75-1.89.89-3.86,1.81-6.27,1.52-4.78-.42-8.26-2.93-12.27-4.58-6.58-2.7-12.87-5.83-19.39-8.61-2-.2-2.83.88-3.61,1.94-5.24,7.12-11.54,9.56-22,8.52-6.21-.62-11.27-2.61-14.46-6.95-1-4.28,1.95-7.81,8-9.4a32.36,32.36,0,0,1,7-1,22.06,22.06,0,0,0,6.2-1.14c-4.92-3-10.16-4.81-15-7.1-3.26-1.53-6.68-2.84-9.89-4.44-1.49-.74-2.78-1.54-3-3,0-1.3,1.47-1.8,2.41-2.59,5.73-2.64,11.31-5.5,17.39-7.67,6.06-3.22,12.51-5.91,18.95-8.64,2.52-1.32,5.06-2.61,8.31-2.46l.31-.11C379.84,228.36,383.24,225.74,388.81,226.81Z" transform="translate(-98.16 -173.15)"/><path class="cls-3" d="M199,321.24c-.21-5.78,3.44-10.08,9.51-12.89,16.71-7.75,33.66-15.2,50.44-22.85,2.19-1,3.41.34,5.07.63,3-.92,5.07.71,7.11,1.83,5.58,3.06,11.77,5.24,17.72,7.78,1.83.78,3.73,1.55,4.6,3.19a1.91,1.91,0,0,1,0,1.47,3.16,3.16,0,0,1-1.18,1.1c-3.21,1.69-7.06,1.31-10.62,1.9A31.36,31.36,0,0,0,274.4,305c-4.42,1.88-4.76,5.22-.75,7.59a19,19,0,0,0,8.89,2.2,69.53,69.53,0,0,0,8.28-.11l1.1-.08c.36-.05.72-.11,1.08-.18.71-.18,1.4-.39,2.08-.62a11.68,11.68,0,0,0,5.38-5.43c2-3.78,6-4.73,10.57-2.7,3.53,1.56,7.17,3,10.54,4.76,5.62,2.23,10.38,5.6,16.36,7.37,1.3.65,2.12,1.49,1.86,2.76-4.32,3.93-10.77,5.36-16.08,8.14-3.78,2-8.12,3.28-12,5.72a15.57,15.57,0,0,0,6.62,1.26,25.08,25.08,0,0,1,10.79,2.66c4.09,2.06,5.22,5.14,3.21,8.38-6.33,7.35-24.34,8.65-32.44,2.37a11.16,11.16,0,0,1-3-3.89c-.64-1.19-1.14-2.56-3.26-2.72-5.47,1.75-10.28,4.4-15.39,6.64-4.24,1.85-8.52,3.65-12.67,5.61a12.52,12.52,0,0,1-5.69,1,21.59,21.59,0,0,1-10-4.91c-1.07-1.45-.33-3-.13-4.43.25-1.75-.57-2.79-2.45-3.71-2.31-1.13-3.92-1.5-4.9,1.06-1.33,3.44-4.24,1.19-6.58,1a16.77,16.77,0,0,1-9.17-4c-2.81-1.63-4.19-3.56-3.39-6.46.5-1.8-2.33-4-4.64-4.17a2.25,2.25,0,0,0-2.51,1.52c-.59,1.13-1.1,2.3-2.79,2.77-4,.21-6.19-2-8.7-3.76-.95-3-2.16-5.9-5.48-8A1.07,1.07,0,0,1,199,321.24Z" transform="translate(-98.16 -173.15)"/><path class="cls-4" d="M620.9,366.37l.06,2.37c1.77,3.71,3.27,7.41.06,11.13-2.14.22-2.28-1-2.5-2.12a19.67,19.67,0,0,1-.18-4q0-19.89,0-39.77c0-3-.3-6.09.89-8.76-.28,2.95-3.31,4.7-6.33,6.3-8,4.21-16.57,7.59-24.85,11.39-8.06,3.69-16.11,7.4-24.31,10.91a10.79,10.79,0,0,1-4,1.15c-4.18.16-7.09-2.06-10.33-3.48-6.29-2.77-12.58-5.55-18.83-8.38-2.23-1-4.25-2.1-3.87-4.45,2.52-3.12,6.91-2.45,10.63-3,3.4-.46,6.78-.75,9.5-2.57,3-2,3.16-4.22.15-6.19-5.75-3.77-18-4.17-24.4-.33-1.76,1.06-2.09,2.78-3.07,4.2-1.35,2-2.83,3.73-6.24,3.42a10.43,10.43,0,0,1-4.49-.88c-8.2-3.59-16.34-7.27-24.52-10.88a10.74,10.74,0,0,1-4.11-3.15,1.46,1.46,0,0,1,.66-1.65c4.62-2.45,8.8-5.6,14.89-5.8,4.58-2,9.17-3.94,13.74-5.93s6.89-1.33,8.57,2.54c1.42,3.28,3.79,5.51,8.52,5.79a10.64,10.64,0,0,1,4.59-.3,27.65,27.65,0,0,0,12.72-1.32c2.59-.88,4.93-2.26,5.12-4.63s-2.43-3.39-4.83-4.3a32.32,32.32,0,0,0-9.15-1.6c-3.19-.24-6.74-.17-8.32-3.09.13-1.11,1.36-1.4,2.35-1.85,8-3.62,16.25-7,24.08-10.92,3.88-1.92,7.19-2.47,10.9-.2,5.79.28,10,3.12,14.62,5.32,2.17,1,4,2.44,6.61,2.85a15.67,15.67,0,0,1,3.54,1.34c5.91,2.79,12,5.33,18,8a36.65,36.65,0,0,1,3.79,1.61c2.8,1.82,5.81,3.42,8.09,5.7,2.59,2.59,4.11,5.36,3.65,8.68-.07.91.53,1.72.6,2.61-.17,8,0,16-.14,24,.15,5.23.06,10.46,0,15.69C622.73,363.54,622.55,365.14,620.9,366.37Z" transform="translate(-98.16 -173.15)"/><path class="cls-5" d="M138,390.86A175.11,175.11,0,0,0,153.2,357.5a33.09,33.09,0,0,1,2.91-6c4.23-7.17,8.25-8.47,17.89-5.93,1.62,3.31,6.7,5.53,11,4.89a2.12,2.12,0,0,0,1.91-1.3,2.61,2.61,0,0,1,2.34-1.42c1.32,0,2.31-.73,3.51-1,2.64-.47,3.73-2.64,6.17-3.34a43.78,43.78,0,0,0,6-3.27,16.27,16.27,0,0,1,8.88-2.5c5.83,1.28,7.9,3.44,7.83,8.16-.1,2.6-2.85,3.51-5.14,4.61-3.36,1.62-6.65,3.3-9.91,5a1,1,0,0,0-.59,1c5.39,1.85,10.6,3.65,16.42.13,3.5-2.12,7.44-3.84,11.19-5.73a8.63,8.63,0,0,1,3.93-1.31c5.66-.49,9.59,1.94,10.26,6.33.59,2.78-1,4.59-4,6-6.74,3.21-13.29,6.65-20.17,9.68a17.14,17.14,0,0,1-9.5,1.41c-5-.71-10.33.31-15.26-1.26a2.85,2.85,0,0,1-2.23-1c-2.43-.51-2.49,1.15-3,2.13-4.36,8.44-8.61,16.92-12.9,25.38,1.72,5.8-6.81,12.18-14.85,10.87a43,43,0,0,1-13.34-4.41,46.65,46.65,0,0,1-12.37-5.76C136.65,396.73,137.43,393.75,138,390.86Z" transform="translate(-98.16 -173.15)"/><path class="cls-6" d="M494,428.94c-5.74.67-11.49,1.32-17.22,2a10.69,10.69,0,0,1-5.41-.52c-8.75-3.6-16.94-7.9-25.19-12.12a6.31,6.31,0,0,1-1.27-1.13c-1.18-5.06,3.15-8.7,9.86-8.29,3.55.46,5.79,2.65,8.69,4a17.21,17.21,0,0,1,3.17,1.78c6.59,5,13.71,4.45,21.11,1.31,4.36-1.12,8.13-3.36,12.72-4.07,2.71.88,2.88,3.05,3.82,4.76,2.47,4.43,5,5.55,11.11,4.37a29.55,29.55,0,0,0,8.82-3.35c3.56-2,3.7-2.73,2-5.88-1.09-2.06-3.3-4.08-1.27-6.54,2-.57,3.36-.14,3.88,1.53,6,5.37,7.3,12,8.69,18.7,1.51,7.21,4.09,14,10.66,19.7,2.57,2.23,5.56,4.85,3.75,8.47-.12,4.23-4.73,5.19-8.38,6.85-4.29,2.5-9.29,3.84-14.38,4.86-5.68,1.15-14.08-2.19-16.63-6.35a2.4,2.4,0,0,1,.43-3.41c-.85-7-3.26-13.57-9.94-18.76a11.07,11.07,0,0,1-3.83-5.6C498.49,428.85,497.08,427.88,494,428.94Z" transform="translate(-98.16 -173.15)"/><path class="cls-7" d="M498,496.71c-.56,3.28.55,6.66-1,9.88-.9,1.93-2.8,2.52-5.29,2.47a27.55,27.55,0,0,1-8-1.56c-3.5-1.13-4.09-4.32-1.67-7.26l0-4.17c.35-9.64.78-19.28,1.57-28.91.36-4.31,2.56-6.63,7.9-7.77A215.57,215.57,0,0,1,513,455.58c1.36,5.82,9.78,9.76,17.2,8.09a122.66,122.66,0,0,0,13-4.2c2,.45,2.34,1.69,2.47,3.09.51,5.73-3.56,10.29-11.19,12.47-8.94,3.14-18.42,3.11-27.93,2.74-4.9-.19-5.81.26-5.92,4.12s-1.15,7.89-.93,11.87A3.13,3.13,0,0,1,498,496.71Z" transform="translate(-98.16 -173.15)"/><path class="cls-8" d="M123.73,446c-3.7,2-6.11,5.43-11.11,6-1.25-.8-1-1.83-.52-2.78,1.14-2.25,1.26-4.32-1.27-6.1s-5.25-1.44-8.06-.56a1.52,1.52,0,0,1-1-.32c0-1.79,1.28-3,2.84-4.17,7-5.4,13.91-10.88,20.89-16.3a9,9,0,0,0,3.1-4.16c2.48-6.76,4.94-13.53,7.76-20.21.91-2.16.09-4.48,1.62-6.48-.62,3.58,1.23,6.07,5.14,8.08,3.25,1.67,6.62,3.16,9.92,4.75a15.89,15.89,0,0,0,2.51,6.15,5,5,0,0,1,1.08,3.69c.42,2-1.31,3.43-2.08,5.13-3.33,7.35-9.21,13.35-16.63,18.5-4.16,2.89-7.2,6.77-12.69,8.48A7.05,7.05,0,0,1,123.73,446Z" transform="translate(-98.16 -173.15)"/><path class="cls-9" d="M155.5,413.6c-.44-2.76-3.53-4.78-3.56-7.69,0-.94-.51-1.84,1.11-2.21,3.36,1.1,6.67,2.34,10.11,3.28,7.79,2.14,15-1.06,16.89-7.38a9.51,9.51,0,0,1,.68-1.4c2.52,1.56,5.72,1.26,8.59,1.82,19.13,3.73,15.35,2.12,16.65,15.31.52,5.27.26,10.58.35,15.87,0,2.57-.59,5.16.44,7.7.22.25.5.5.52.81.15,2.55-2.57,4.77-7.56,6.19-4.61,1.31-7.14,1-9.49-1.29-1.4-4-.18-8.12-.74-12.16-1.68-.7-1.65-2-1.71-3.18-.12-2.53,0-5.06-.08-7.59-.09-3.3-.56-3.65-4.77-3.73-5.75-.11-11.53.33-17.25-.69C161.92,416.59,158.35,415.72,155.5,413.6Z" transform="translate(-98.16 -173.15)"/><path class="cls-9" d="M534.34,474.28c1.23-.74,2.44-1.51,3.7-2.23,5.45-3.11,7.22-7.39,5.19-12.58,3.14-1.74,6.46-3.32,8.72-5.85,2,6.81,4.26,13.6,6.07,20.45a32.36,32.36,0,0,0,7.83,13.5c6.44,7.09,13.77,13.6,21,20.18a1.58,1.58,0,0,1-1.08.82c-5.32.65-5.71,3.73-5.91,7-.08,1.31.95,2.86-1.09,3.85-4.07-2.39-6.47-6-10.17-8.61a11.52,11.52,0,0,1-5.86-2.92c-5.74-5.45-12.65-10-18.85-15.14-5.56-4.58-7.54-10.58-10.33-16.24A1.68,1.68,0,0,1,534.34,474.28Z" transform="translate(-98.16 -173.15)"/><path class="cls-9" d="M675.46,343.12,671.58,342a17.77,17.77,0,0,1-7.3-.94c-7.42-2.38-14.93-4.61-22-7.65a8.41,8.41,0,0,1-4.22-3.52c-2.37-4.26-6.06-8.14-6.26-13a21.28,21.28,0,0,1,10.32-6.56c4.14.27,7.23-1.57,10.44-3.14,1.31-.64,2.41-1.7,4.23-1,.89,2.49.11,5,.39,7.56.54,4.8,3,8.4,8.91,10.64,7.19,2.72,14.73,4.92,21.43,8.39,1.92,4.62-.9,9.46-6.54,11.38C678.81,344.82,676.93,344.78,675.46,343.12Z" transform="translate(-98.16 -173.15)"/><path class="cls-10" d="M273.59,278.85c1.68-3.79,6-5.11,10.21-6.62s8.07-3,12.1-4.55c3.21-1.21,5-3.21,5.66-5.89a55.84,55.84,0,0,0,1.39-11.85c.08-2-.26-4.08.63-6.06,1.81-.26,2.85.7,4.08,1.45,4.8,2.94,9.7,5.58,16.36,3.53a4.52,4.52,0,0,1,3.74.33c1.86,2.39-.64,4.51-.71,6.78-2.29,4.64-4.57,9.28-6.76,13.94-1.66,3.52-4.69,5.8-9,7.22-6.16,2-12.19,4.34-18.63,5.82-3.14,1.56-6.73,2.29-10.17,3.3a4.11,4.11,0,0,1-1.76,0,27.82,27.82,0,0,0-4.07-1.69A5.43,5.43,0,0,1,273.59,278.85Z" transform="translate(-98.16 -173.15)"/><path class="cls-11" d="M350.89,200.1a17,17,0,0,1,1.3,5.69c.3,3.33,1.31,6.59,1.68,9.93a12.4,12.4,0,0,1-4,10.81c-4.61,4.57-6.21,10.12-8.41,15.48a6.47,6.47,0,0,1-1.4,2.51,4.16,4.16,0,0,1-6.46.68,86.21,86.21,0,0,1-10.44-10.31,4.47,4.47,0,0,1-.78-4.11c.92-4,1.71-8,2.88-12,1.44-4.91,2.68-9.61-4.18-12.84a27,27,0,0,1,6.06-3.19c2,.12,2.69,1.44,3.8,2.39a11.49,11.49,0,0,0,9.26,3c2-.23,3.47-.82,3.68-2.54C346.26,203.84,347.17,200.92,350.89,200.1Z" transform="translate(-98.16 -173.15)"/><path class="cls-12" d="M642.35,311.19l-9.64,5.74a2.25,2.25,0,0,1-2.93.82c-.43-.27-.81-.64-.67-1,.93-2.77.09-4.74-3.81-5.59a1.47,1.47,0,0,1-1.1-1.79c.46-1.66,2.41-2.39,3.65-3.57,2-2,4.48-3.71,6.55-5.71,1.84-1.77,2.38-3.45,1.74-5.63-1.55-5.25-2.6-10.58-3.94-15.87a9.49,9.49,0,0,1,.44-6c1.68-4.16,4.18-5.38,9.63-4.57,3.34,1.15,4.61,3.48,5.65,5.92a106.21,106.21,0,0,1,5.46,18.05c.41,1.79,1,3.56,1.47,5.34C655.36,303.27,650.88,308.26,642.35,311.19Z" transform="translate(-98.16 -173.15)"/><path class="cls-13" d="M199,321.24c4.4,2,7.57,4.58,6.53,9,1.21,2.26-.45,3.69-2.41,5a10.25,10.25,0,0,0-5.83,3.32,8.22,8.22,0,0,1-5.28,3.25c-2.13.34-1.91,1.58-1.19,2.86,1,1.81.49,3.15-2.24,3.63a17.3,17.3,0,0,0-1.68.48c-4.3-.17-8.4-.64-10.61-4.05-4.55-5.54-5.84-11.53-3.6-17.83,2.58-7.27,13-10.73,21.71-7.38C195.88,320.11,197.43,320.67,199,321.24Z" transform="translate(-98.16 -173.15)"/><path class="cls-6" d="M642.26,268c-7.43,1.71-9.61,4.55-8.12,10.66,1.29,5.27,2.57,10.54,3.94,15.8.63,2.39.51,4.33-2,6.32s-4.93,4.18-7.5,6.2c-4.47.08-7.18-2.27-10.1-4.34-1.69-2.57-1-5.41-1.27-8.09-.66-7.87-1.89-15.75-.64-23.65a2.48,2.48,0,0,1,1.89-2.48c5-1.13,9.13-3.32,13.26-5.59Z" transform="translate(-98.16 -173.15)"/><path class="cls-14" d="M478.18,278.85c1.2-3.93-.52-6.11-5.93-8-3.84-1.31-8-1.09-12-1.8-.64-.12-1.34-.05-2-.21-1.22-.3-3-.26-3.29-1.38s1.43-1.58,2.5-2.06q13.85-6.19,27.76-12.3c.77,1,.38,2.19.38,3.28,0,12.49,0,25,0,37.46,0,1.1-.31,2.23.32,3.3v1.26a22.92,22.92,0,0,0,0,8.53l.31.64c3.07,5.24.11,8.77-7.12,8.49-2.15-.88-2.85-2.38-2.62-4.1,1.11-8.43.35-16.88.48-25.32A35.71,35.71,0,0,1,478.18,278.85Z" transform="translate(-98.16 -173.15)"/><path class="cls-15" d="M321.09,205.95c5,.12,6.88,1.54,7.13,5.66.28,4.64-1.17,9.17-2.79,13.51-2.14,5.76-1.21,10.43,4.52,14.56a43.52,43.52,0,0,1,5,4.73c1.64,1.62,2.75,1.66,3.61-.48a11,11,0,0,1,1.81-2.33,7.07,7.07,0,0,1,6.58-1.87c2.3.38,3.93,1.24,2.93,3.39-5.74,2.69-11.39,5.48-17.47,7.7a3.58,3.58,0,0,1-4-1.46c-5.79-2.25-9.05-6.55-13.41-10-2.28-1.78-3.7-4-1.83-6.57a78.11,78.11,0,0,1,3.4-20.13C317.28,210.2,317.65,207.42,321.09,205.95Z" transform="translate(-98.16 -173.15)"/><path class="cls-6" d="M587.91,296.91l-3.28-1.64a10.75,10.75,0,0,0-6.32-3.17c-.86-.78-1.45-1.56,0-2.32,6.7-2.15,12.33-5.69,18.47-8.56,1.23-.58,1.27-1.74,1.63-2.69,2-5.24,3.95-10.5,5.94-15.75.59-1.55,1.07-3.16,3-4.14,3.25,3.31,7.19,6.17,10.56,9.41.07,1.06-.95,1.86-1.12,2.87a6.84,6.84,0,0,0-.74,4.42c.47,3.33-.33,6.63-.65,9.95a2.55,2.55,0,0,1-1.94,2.42c-3.13.06-2.26-2-2.87-3.25-.41-2.43-1.94-4.6-2.37-6,.58,1.63,2.17,4,2.51,6.72s-2.24,4.49-4.65,6c-4.12,2.59-9.13,4-13.92,5.71C590.89,297.32,589.35,297,587.91,296.91Z" transform="translate(-98.16 -173.15)"/><path class="cls-16" d="M331.55,177.82a6.38,6.38,0,0,0,1.86.17c8.16-1.86,14.25,1,19.71,5.17,4,3,4,4.86.44,8.41-2.4,2.88-6.31,3.75-10.23,4.75-4.15,1.05-8.07,2.47-9.51,6.12a2.08,2.08,0,0,1-2.17,1.07,2.61,2.61,0,0,1-2.47-2.27,25.76,25.76,0,0,1-5.43-7.26,2.1,2.1,0,0,1-1-.63,16.46,16.46,0,0,1,.17-8.68C324.12,181.14,327.22,179,331.55,177.82Z" transform="translate(-98.16 -173.15)"/><path class="cls-5" d="M605.9,254c-4.24-2.4-3.83-11.34,1.11-14.5,5.16-3.3,11.09-4.55,17.63-4.23a9.83,9.83,0,0,1,6.28,2.9c6.22,5.71,6,17.22-.45,23a2.33,2.33,0,0,1-.92-.5,2.07,2.07,0,0,1-.61-1.42c.27-2.46,1.59-5.6-4.36-3.82C618.71,252.2,612,255.42,605.9,254Z" transform="translate(-98.16 -173.15)"/><path class="cls-17" d="M526.6,299.06a27.62,27.62,0,0,0,9.87,1.81,27.31,27.31,0,0,1,8.72,1.68c2.95,1.11,5.71,2.45,5.81,5.25s-2.59,4.77-5.52,5.84c-6.1,2.21-12.52,3-19,.66Q526.53,306.68,526.6,299.06Z" transform="translate(-98.16 -173.15)"/><path class="cls-15" d="M605.9,254c1.58-1.11,2.94-1.85,5.49-1,1.68.53,4.08-.2,6.13-.49,3.14-.45,6-.58,7.06,2.34,1.18-.09,1.09-.74,1.39-1.13a2.91,2.91,0,0,1,2.87-1.24c1.5.18,1.74,1.12,1.95,2a12.48,12.48,0,0,1-.51,6c-.64,4.35-6.78,7.75-13.47,7.44a5.9,5.9,0,0,0-1.73-1.17c-5.14-1.29-6.55-4.62-7.69-8.13A12.25,12.25,0,0,0,605.9,254Z" transform="translate(-98.16 -173.15)"/><path class="cls-11" d="M313.12,232.83c0,2.15,1.19,3.88,3,5.48q6.08,5.42,12.77,10.39c-.13.63-.69.75-1.4.67-11.37,2.55-16.85,1.3-23.9-5.49-.85-1.63-.06-2.89,1.4-4.09C307.75,237.51,310.41,235.16,313.12,232.83Z" transform="translate(-98.16 -173.15)"/><path class="cls-15" d="M348.37,226.06a17.12,17.12,0,0,0,4.1-15.41,33.74,33.74,0,0,1-.28-4.85c1,3.85,2.3,7.68,3,11.57.5,2.77,2.09,4.52,5.17,5.94,5.4,2.48,10.58,5.26,15.85,7.91l-7.36,3.41c-7.07,0-12.74-2.89-18.58-5.38A3.2,3.2,0,0,1,348.37,226.06Z" transform="translate(-98.16 -173.15)"/><path class="cls-18" d="M331.49,202.74c2.78,0,1.46-1,.81-1.85-.83-1.08-1-2.14.35-3,2-1.25,2.13.85,3.51,1.19.14-2.82,2.65-3.52,5.69-4,4.16-.62,7.91-2.16,11.71-3.54-.12,3-2.16,5.63-2.67,8.54-1.69,2.14-2.52,4.79-5.9,5.92-1.9,2.46-5,2.35-7.63,1.48S331,206.08,331.49,202.74Z" transform="translate(-98.16 -173.15)"/><path class="cls-16" d="M323.76,194a17,17,0,0,1-10.37,5.55c5.21-5.09,4-10.09,2.47-15.15-.63-2,0-4,1-6,1.21-2.39,2.46-5,6.33-5.24a8.71,8.71,0,0,1,7.78,4,2.22,2.22,0,0,1-1.08,1.23c-8.27,3.6-7.9,9.33-6.38,15.34Z" transform="translate(-98.16 -173.15)"/><path class="cls-5" d="M675.46,343.12c5.24.89,10.9-2.9,11.31-7.45.09-1-1.1-2.25.78-3l3.9,1.26c-1,6.47-3,12.68-8.36,17.94a4.55,4.55,0,0,1-4.84,1.3c-2.11-.68-3.54-1.86-3.46-3.7C674.89,347.37,675.23,345.25,675.46,343.12Z" transform="translate(-98.16 -173.15)"/><path class="cls-19" d="M101.78,442.18l.58,0c4-.36,5.78.44,6.27,3.08,1,5.55.93,11.15,1.12,16.73a2.2,2.2,0,0,1-.92,1.64c-4.85-1.45-9.73-2.89-9.77-7.89,0-2.3.12-4.54-.64-6.87C97.59,446.28,98.81,443.85,101.78,442.18Z" transform="translate(-98.16 -173.15)"/><path class="cls-20" d="M578.77,519.4c-.61-2.4-1.06-4.81-.32-7.24,1.2-3.92,3.26-5,8.39-4.4l4,1.87c0,1.53-1.63,2.5-2.26,3.82-1.32,2.8-3.25,5.45-2.61,8.67.39,2-1.55,3.1-3.57,4a3.21,3.21,0,0,1-3.59.09c-1.26-.87-.68-1.81.12-2.71C580.23,522.12,579,520.77,578.77,519.4Z" transform="translate(-98.16 -173.15)"/><path class="cls-5" d="M282.17,285.59c.59.91,1.16,1.82,1.78,2.72.94,1.35.92,2.48-.95,3.39a4.24,4.24,0,0,1-4.95-.41,19,19,0,0,1-5-6.17c-.39-.75-.51-1.81-1.23-2.2-3.83-2.07-.92-2.93,1-4q.35-.05.71-.07c2.64,1.06,1.6,3.89,4.07,5a12.5,12.5,0,0,1,2.82,1.59Z" transform="translate(-98.16 -173.15)"/><path class="cls-19" d="M582.46,526.13c.79-1.16,2.14-2.35,1.75-3.63-1.16-3.75,1.28-6.81,2.7-10.09.66-1.52,2.76-1.77,4-2.78a1.47,1.47,0,0,1,.77,2.16c-2.1,2.88-.61,5.85-.69,8.78C589.85,524,586.87,525.71,582.46,526.13Z" transform="translate(-98.16 -173.15)"/><path class="cls-21" d="M642.35,311.19c2-1.61,3.94-3.27,6-4.83,3.34-2.54,5.94-5.36,6.49-9.08a30,30,0,0,0,2.35,3.83c1.48,1.8,1.27,3.4-.36,5C652.67,308.93,648.59,311.9,642.35,311.19Z" transform="translate(-98.16 -173.15)"/><path class="cls-22" d="M331.49,202.74c3.77,2.88,7.82,5.07,13.5,3.29-1.22,3.35-4.88,4.65-9.55,3.27a12.76,12.76,0,0,1-8.3-6.53l2-1.52Z" transform="translate(-98.16 -173.15)"/><path class="cls-23" d="M187.24,348.22l1.3-.22a1.43,1.43,0,0,1,.94-.16q.27.22.19.44t-.17.23c-.56.16-1.7,0-1.51.63.91,3.07-1.82,2.71-4.13,2.71a19.9,19.9,0,0,1-8.83-2.31c-2.15-1-2.89-2.3-1-4l1.19-.06c2.34.34,3.77,2,6.1,2.43C183.27,348.3,185.18,349,187.24,348.22Z" transform="translate(-98.16 -173.15)"/><path class="cls-24" d="M578.34,289.78a2,2,0,0,0,.78,2.42.67.67,0,0,1-1.06.13l-14.12-6.23c3-1.14,5.92-.55,8.59.46A41.63,41.63,0,0,1,578.34,289.78Z" transform="translate(-98.16 -173.15)"/><path class="cls-25" d="M616.81,267.94c2.24-.78,4.45-1.59,6.71-2.33,3.12-1,5.46-2.65,6.76-5.11l.18.71c-.15.8.83,1.06,1.25,1.59-1.5,3.56-5.74,4.35-9.51,5.64-1.62.55-3.65.52-4.67,1.93a1,1,0,0,1-1.33-.11A2.84,2.84,0,0,0,616.81,267.94Z" transform="translate(-98.16 -173.15)"/><path class="cls-26" d="M486,297.19c-1.07-1.19-.72-2.55-.72-3.85q0-20.1,0-40.2l.11-.84c1,.44.93,1.18.92,1.88Q486.2,275.69,486,297.19Z" transform="translate(-98.16 -173.15)"/><path class="cls-27" d="M388.81,226.81l-12.31,4.3c.51-3.16,5.49-6.3,9.5-6C387.44,225.2,388.46,225.67,388.81,226.81Z" transform="translate(-98.16 -173.15)"/><path class="cls-28" d="M323.49,193.7c-3.58-5-1.78-14.47,7.46-16.57l.6.69a6.59,6.59,0,0,1-1.54,1.35c-5.29,2.41-6.86,6.12-6.51,10.59C323.61,191.07,323.5,192.39,323.49,193.7Z" transform="translate(-98.16 -173.15)"/><path class="cls-29" d="M187.24,348.22c-3.56,1.92-8.45.83-12.06-2.71l1.07-.78A29.26,29.26,0,0,0,187.24,348.22Z" transform="translate(-98.16 -173.15)"/><path class="cls-26" d="M486,307a11.18,11.18,0,0,1,0-8.53Z" transform="translate(-98.16 -173.15)"/><path class="cls-30" d="M442.42,412.85c-3.8.82-7.56,1.77-11.4,2.45-19.19,3.39-36.62.28-53.17-7.82-13-6.36-26.67-11.93-40-17.85a.79.79,0,0,1-1-.14c-.38-1.38.8-2.09,2.1-2.6,8.32-3.24,15.67-7.72,23.83-11.16.92-.39,1.85-.77,2.8-1.12,4.93-1.83,8.12-1,10.42,3,1.62,2.88,3.72,5.08,7.85,5.79,6.19.88,12.29,1.14,18-1.45,4.74-2.14,5-5.23.41-7.61-3.77-2-8.22-2-12.5-2.39-2.92-.3-5.8-.59-7.23-3-.2-1.42.84-2.31,2.26-3q13.52-6.3,27.27-12.28c2.69-1.18,5.38-.57,7.87.59,7.34,3.39,14.93,6.45,22.19,9.94,1.23.59,2.57,1,3.84,1.56,2.38,1,3.88.41,5.08-1.39,4.41-6.65,12.69-9.7,22.16-8.29a29,29,0,0,1,7.08,1.79c.41.09.82.18,1.23.25,4.23,2,7.19,4.48,5.95,8.69a14.36,14.36,0,0,1-9.21,5.76c-3.82.72-7.77.84-12.53,1.69,7.13,4.12,14.77,6.46,21.13,10.29a2.2,2.2,0,0,1,.7.74,30.38,30.38,0,0,1-1.56,8.28c-2.07,1.7-4.25,3.25-7.62,2.93-2.22-.46-2.89-1.93-3.64-3.35a3.35,3.35,0,0,0-3.92-1.92c-2,.36-3.65,1.55-3.17,3,1,3.21-1.13,5.71-2.27,8.47-2.51,2.21-5.2,4.14-9.44,3.76-2.71-1.26-6-1.89-7.15-4.73-.39-1-2.17-1-3.51-.69-1.82.48-2.76,1.59-2.79,3a21,21,0,0,0,.67,4.51C443.42,410,444.46,411.64,442.42,412.85Z" transform="translate(-98.16 -173.15)"/><path class="cls-18" d="M442.42,412.85c-.57-2.4-1.22-4.79-1.68-7.2-.64-3.32,1-5.57,4.48-6.17s5.21.45,6.68,4.1a5,5,0,0,0,.35.6c1.11-.2,1.21-1.84,2.6-1.34,1.92.69.72,2.19,1.07,3.3,1.21,1.42,1.22,2.69-.81,3.68-5.73.34-8.46,2.3-10.2,7.35C443.24,416,443.28,414.28,442.42,412.85Z" transform="translate(-98.16 -173.15)"/><path class="cls-31" d="M337,389.56q.39,0,.77.08,0,30-.06,60-.39,0-.77-.1c-.11-.19-.31-.37-.31-.56,0-15.06-.27-30.12.13-45.18v-4.36a10.07,10.07,0,0,1-1.49-7C335.43,391.28,335.54,390.16,337,389.56Z" transform="translate(-98.16 -173.15)"/><path class="cls-32" d="M479.77,315.58c-1.8,1.74-1,3.7-.82,5.61.87,2.55.21,5.15.42,7.72,0,2.53,0,5.06,0,7.6-.42,4.58-3.11,7.26-8.88,8.45a41.83,41.83,0,0,1-17.17,0c-4.28-.9-7.76-2.9-9.11-6.2-1-2.52-4.35-3.16-5.78-5.21-.3-18.53-.11-37.05-.12-55.57a7.1,7.1,0,0,1,1.83-4.6,6.48,6.48,0,0,1,5.09,3c3.81,6.27,10.9,9,20.17,7.83,5.05-.64,9.76-1.81,12.79-5.35,1,1,.78,2.12.78,3.22,0,8.73,0,17.46,0,26.19C479,310.71,477.14,313.3,479.77,315.58Z" transform="translate(-98.16 -173.15)"/><path class="cls-14" d="M339.34,320.44c-.27-1.06-1.77-1.16-2.49-1.87a4.9,4.9,0,0,1-1.08-2.8c-1-3.82-.54-7.69-.57-11.54-.05-7.21-.1-14.41,0-21.62,0-1.55-.46-3.34,1.8-4.39,6,7,19.44,7.41,27.72,4.26a9.77,9.77,0,0,0,5.47-5.3c1.05-2.1,2.34-4.51,6.46-3.24,1.79,4.27,1.35,8.7.84,13-.74,6.2-.5,12.38-.57,18.57-.1,8.33,0,16.66,0,25,0,1.57-.14,3-1.68,4.21-1.57.95-3,2-3.59,3.53-1.77,4.65-6.56,6.56-12.08,7.21a42.15,42.15,0,0,1-14.1-.39,14.08,14.08,0,0,1-7.5-4.13c-.8-5.72-.34-11.46-.32-17.19A4.43,4.43,0,0,1,339.34,320.44Z" transform="translate(-98.16 -173.15)"/><path class="cls-14" d="M440.13,273.36q0,28.12,0,56.24c0,1.42.24,2.87-.78,4.17.05,1.72-1.56,2.49-3.17,3.18-7.78,3.37-15.35,7-23.17,10.34-2.06.87-4.06,1.55-6.09,0a8.47,8.47,0,0,1-1.13-5.06c0-16.58-.05-33.16,0-49.74,0-1.75-.6-3.75,1.78-5,6-1.45,10.81-4.52,16.22-6.77S434.7,275.8,440.13,273.36Z" transform="translate(-98.16 -173.15)"/><path class="cls-32" d="M407.58,287.43q0,28,0,56c0,1.39-.44,2.89,1,4.08-1.25,2.08-3.12,1-4.59.37-6.39-2.56-12.57-5.43-18.79-8.24-2.94-1.33-5.9-2.62-8.87-3.9-1.12-.48-2.5-.74-2.86-1.9a2.17,2.17,0,0,0,1.69-2.41c-.12-9.66.12-19.32-.16-29-.26-8.75,1.29-17.44.86-26.18a2.79,2.79,0,0,1,.79-2.31Z" transform="translate(-98.16 -173.15)"/><path class="cls-32" d="M337,278.23l-.15,38.17c-5.8.32-10.15-2.8-9.21-7a63.21,63.21,0,0,0,.82-20c-.53-5.57-.34-11.11-.6-16.66,0-4.88,0-9.76,0-14.65,0-1.11-.29-2.2-.3-3.3s.41-2.21,2.23-2.41c5.34,3.69,12.05,5.66,18,8.55,3.56,1.72,7.28,3.25,10.91,4.87.79.35,1.76.66,1.57,1.55s-1.1,1.19-2,1.31c-2.7.39-5.42.73-8.15,1a25.08,25.08,0,0,0-7.92,1.68C338.82,272.84,336.62,275,337,278.23Z" transform="translate(-98.16 -173.15)"/><path class="cls-33" d="M329.8,252.41c-1.58,1.73-.24,3.75-.92,5.56a1.41,1.41,0,0,1-1,.29c-1.71-.45-2.43-1.32-1.94-2.7-.57-2.22,1.44-4.06,1.54-6.19l1.4-.67,3.52,2.12Z" transform="translate(-98.16 -173.15)"/><path class="cls-34" d="M331.87,396a62.1,62.1,0,0,0-.18,7c.28,3.42-1.77,5.67-5.55,7a33.06,33.06,0,0,1-22.15.12,8.19,8.19,0,0,1-5.45-5.29c-.82-2.3-2.54-3.75-5.86-3.7-1.27-1.22-1.09-2.69-1.09-4.09q-.08-25.58,0-51.16c0-1.86.21-3.66,1.92-5.13,2.09.62,4.32,1.09,4.89,3.14,1.3,4.7,5.81,6.67,11.31,7.36,8.25,1,16.12.67,21.74-5.14,2.4.15,2.51,1.6,2.52,2.89.08,6.78.57,13.56-.36,20.33-.64,4.63-.06,9.3-.54,13.94.66,1.94-.42,3.9.16,5.85C333,391.42,334.14,393.88,331.87,396Z" transform="translate(-98.16 -173.15)"/><path class="cls-34" d="M260.91,415.16c-6.94-2.49-13.33-5.75-20-8.66-9.41-4.12-18.63-8.49-28.14-12.46-9.73-4.07-15.46-9.67-13.92-18.66a29,29,0,0,0,.08-4.58c5.38.25,10.75.48,16.13.77a15.26,15.26,0,0,0,7.55-1.33c7.37-3.53,14.72-7.09,22.12-10.58a3.86,3.86,0,0,0,2.32-3.32c1.25-.86.55-2.1,1-3.12s.8-2.37,2.66-2.7l9.35,4.2c2.55.88,2.55,2.65,2.58,4.4.11,7.21,0,14.42,0,21.63q0,14.47,0,28.95C262.73,411.65,262.73,413.58,260.91,415.16Z" transform="translate(-98.16 -173.15)"/><path class="cls-35" d="M260.91,415.16q0-28,0-55.95c0-1.52.22-3.07-.79-4.49,6.44-1.1,11.36-4.48,17-6.76s10.92-4.82,16.37-7.24q-.05,27.94-.11,55.88c0,1.52.26,3.07-.7,4.5C282.14,405.85,271.76,410.83,260.91,415.16Z" transform="translate(-98.16 -173.15)"/><path class="cls-35" d="M331.64,383.7c-.7-11.27,1.21-22.51.6-33.78-.07-1.3.32-2.66-.8-3.83,1-3.19-.18-5.3-3.77-6.89A25.72,25.72,0,0,0,317.5,337a29.45,29.45,0,0,1-7.74-1.11c-1.75-.5-2.38-1.39-.3-2.32,9.92-4.42,19.54-9.25,29.88-13.11l.27,20.88a6.74,6.74,0,0,1,1.5,5.63c.22,9.17.17,18.34.08,27.52a11,11,0,0,0-.15,3.33C341.1,381.67,336.83,384.33,331.64,383.7Z" transform="translate(-98.16 -173.15)"/><path class="cls-34" d="M237.22,350.34c-5.27,3.21-11,5.86-16.71,8.6a10.87,10.87,0,0,1-8.21.8c-3.53-1-7.13-1.91-11.72-3.12,5.84-2.88,10.84-5.35,15.86-7.81,1.55-.76,3.23-1.39,4.19-2.69,1-1.79,1.41-3.83,3.59-5.16,1-.62,1.84-1.45,3.34-.86a58.58,58.58,0,0,0,8.65,3.72C239,346.25,239.28,347.89,237.22,350.34Z" transform="translate(-98.16 -173.15)"/><path class="cls-34" d="M291.87,315.65A32.93,32.93,0,0,1,275,314.8c-3.36-1.13-6.24-2.9-6.08-6.11.17-3.38,3.38-5.05,7.06-5.76,5.2-1,10.56-1.49,15.85-2.2a2,2,0,0,1,1.16,1.82q.21,5.59,0,11.18A2.85,2.85,0,0,1,291.87,315.65Z" transform="translate(-98.16 -173.15)"/><path class="cls-15" d="M237.22,350.34l-1-6.52c1.84-1.14,2.76,0,3.65,1l.52-.6c1.26-1.51,0-4.67,3.92-4.37,4.7.36,7.78,3.71,7.16,7.06-.22,1.2-.46,2.39-.69,3.59-.71,1.94-1.38,3.88-2.15,5.81-.43,1.09-1,1-1.53,0C245.35,352.83,242.64,350.25,237.22,350.34Z" transform="translate(-98.16 -173.15)"/><path class="cls-15" d="M227.56,340.09l-6.93,6c.05-4.2-3.3-6.31-7.88-7.67-3-1.46-2.86-2.49.5-4.55a10.84,10.84,0,0,1,.64-1.11c1.21-1.65,0-5,4.19-4.57,4.88.44,7.59,3.53,7.08,7-.17,1.18-2.32,3.26,2,2.84C228.43,338,227.86,339.34,227.56,340.09Z" transform="translate(-98.16 -173.15)"/><path class="cls-34" d="M213.24,333.89c.33,1.55-2.79,2.88-.49,4.55-3.71.47-6,2.82-9.08,4.08-1.48.6-2.61,1.72-4.44,1.81-2.53-1.16-1.83-2.88-1.33-4.57a11,11,0,0,1,4.23-5.38l3.38-4.17Z" transform="translate(-98.16 -173.15)"/><path class="cls-36" d="M292.59,299.06l.92,1.19a76.49,76.49,0,0,1,0,15.2l-.86.11a66,66,0,0,1-.09-15.38Z" transform="translate(-98.16 -173.15)"/><path class="cls-37" d="M293.49,315.45q0-7.6,0-15.2a3.37,3.37,0,0,1,.69.09c.41,4.86-.87,9.77.78,14.58Z" transform="translate(-98.16 -173.15)"/><path class="cls-38" d="M292.54,300.19l.09,15.38-.76.09q0-7.45-.1-14.91Z" transform="translate(-98.16 -173.15)"/><path class="cls-39" d="M620.17,379.88c-.25,6.07-5.44,9.49-11.46,12.26-12.89,5.93-25.91,11.71-38.91,17.51-3.52,1.57-6.83,3.45-10.73,4.48-1.64-1.26-1.82-2.88-1.82-4.53,0-17.11-.08-34.22,0-51.33,0-1.49-.25-3.13,1.78-4.13q21.94-9.76,43.87-19.52c3.08-1.38,6.15-2.78,9.11-4.3a19,19,0,0,0,8.13-7.83Z" transform="translate(-98.16 -173.15)"/><path class="cls-40" d="M559.06,354.13q0,30,0,60c-7.06-2.09-13-5.69-19.71-8.34-2.11-.84-4-2.06-6.18-2.7-5.3-1.55-7.57-4.35-6.79-8.66-2.52-1.49-.57-3.67-1.4-5.42-.72-1.91.59-3.86-.21-5.77q-.22-20,0-40c0-1.61-1-3.88,2.56-4.41a3.29,3.29,0,0,0,2.25,2.36Z" transform="translate(-98.16 -173.15)"/><path class="cls-40" d="M486,366.86c1-3.83-1.86-6-5.6-7.79-.21-.38-.15.14-.2-.25-.87-6.55-2.09-13.09-1.3-19.71a1.79,1.79,0,0,1,.88-1.44c1.41-4.38.39-8.85.71-13.27.13-1.71,0-3.44,0-5.16q14.48,6.43,29,12.85c1.12.5,2.36.84,3.55,1.25.76.83,1.59,1.61,1.51,2.73-1.07,14.13-.15,28.27-.52,42.4a5.78,5.78,0,0,1-.65,3.28c-1.14,1.28-2.66,1.11-4.18.57-5.93-2.1-11.51-1.08-16.92,1.13a6.23,6.23,0,0,1-4.08.66,9.87,9.87,0,0,1-3.37-2.1C484,376.91,483.45,371.82,486,366.86Z" transform="translate(-98.16 -173.15)"/><path class="cls-17" d="M512.31,382.18c0-14.17,0-28.33,0-42.5a53.14,53.14,0,0,1,.77-6.34c2.76,0,3.81-1.53,4.78-3.15,3.34-5.61,9.26-8.39,17.31-7.76,3.64.28,7.39.69,10.66,2.14,3,1.32,5.54,3,5.21,6-.32,2.76-3.12,4.11-6,5.23-3.64,1.42-7.73,1.17-11.6,1.73a31,31,0,0,0-6.07,1.32c-1.18,1.16-.79,2.54-.79,3.83q-.06,20.48-.07,41c-2.48,2.22-4.75,4.64-8.89,5.15C514.73,387.12,512.2,385.28,512.31,382.18Z" transform="translate(-98.16 -173.15)"/><path class="cls-18" d="M610.31,305.7l.51-.47a8.25,8.25,0,0,1,8.56-1.05c4.86,1.39,5.43,2,5.43,5.44.76,1.26,2.35.38,3.5.8,3.42,1.25,3.94,4.1,1.13,7L624,319.31a3.35,3.35,0,0,1-3.13.11c-.38-4.81-3.55-8.38-8.32-11.3C611.61,307.52,609.62,307.31,610.31,305.7Z" transform="translate(-98.16 -173.15)"/><path class="cls-41" d="M578.06,292.32l1.05-.13c3.7-1,4.82.82,5.52,3.07A32.58,32.58,0,0,1,578.06,292.32Z" transform="translate(-98.16 -173.15)"/><path class="cls-42" d="M620.91,319.42l3.13-.11a9.42,9.42,0,0,1-3.07,2.45Q620.94,320.59,620.91,319.42Z" transform="translate(-98.16 -173.15)"/><path class="cls-43" d="M202.12,334.37c-.82,3.34-3.77,6.31-2.9,9.95-2.1,1-2.86,3.3-5.65,3.71a6.86,6.86,0,0,1-4.15,0l-.89,0c1.26-.87,2.73-1.61.45-2.94-1.43-.83-1.24-2.13-.46-3.32a3.4,3.4,0,0,1,3.46-1.55c1.07.12,2.37.36,2.63-.66C195.44,336.27,199.14,335.66,202.12,334.37Z" transform="translate(-98.16 -173.15)"/><path class="cls-29" d="M189.43,348h4.15c-1.24.77-2.66.56-4.07.47A2,2,0,0,0,189.43,348Z" transform="translate(-98.16 -173.15)"/><path class="cls-44" d="M512.31,382.18a21.75,21.75,0,0,1,5.78,6.34c4.1,1,3,4,4.07,6.19a2.63,2.63,0,0,1-.35,1.77l3.37,9.05a35.53,35.53,0,0,0,3.81,7.65c1,1.47.76,2.72-.82,3.83a30.56,30.56,0,0,1-16.1,5.82c-4.78.28-7-.79-8.84-4.25-1.08-2.06-2-4.19-2.92-6.29-1.06-.49-1.91-1.09-1.9-2.14-.42-1.6-.72-3.16.55-4.7a1.46,1.46,0,0,0-1-2.52,13.88,13.88,0,0,1-8.43-4.63c-.37-.39-1.17-.43-1.76-.67-1.77-1.14-3.07-2.44-2.41-4.38a7.66,7.66,0,0,1,1.53-7.7c-.05-1.06.42-1.8,1.92-1.94a28.19,28.19,0,0,1,13.67-3.94A20.32,20.32,0,0,1,512.31,382.18Z" transform="translate(-98.16 -173.15)"/><path class="cls-12" d="M499.56,409.81l.75,2.47c-3.26,2.71-7.8,3.51-12,4.83-7.24-.89-12.27-4.85-18-7.79a2.31,2.31,0,0,1-1.22-2.17c.61-5.43,4.25-8.29,10.24-8.05,4,0,6.44,2.37,9.35,4a19.73,19.73,0,0,0,2.73,1.65C494.19,406.33,497,408,499.56,409.81Z" transform="translate(-98.16 -173.15)"/><path class="cls-1" d="M470.3,407.33c2.95,2.9,7.52,4.05,11.2,6.17,2.21,1.27,4.54,2.42,6.81,3.62-8.18,3.86-15.81,3.81-23.13-1.49-3-2.2-6.7-3.88-10.07-5.8l.81-3.68,8.75-3.68c2.82-.41,3.75,1.22,4.66,2.7C469.75,405.83,469.49,406.73,470.3,407.33Z" transform="translate(-98.16 -173.15)"/><path class="cls-45" d="M482.05,500.24c.27,7,6.25,9.55,15,6.34-.06,1.84,1.12,3.93-1.66,5.25-2,1-4.77,1.16-5.82-.15-2.19-2.72-5.51-2.32-8.63-3a12.38,12.38,0,0,1-7.07-4.66c-2.09-2.62-.82-4.37,3.15-4.33C478.67,499.73,480.36,500.05,482.05,500.24Z" transform="translate(-98.16 -173.15)"/><path class="cls-46" d="M190.22,444.61c6.94,1.87,13.93-.54,16.54-5.71,2.2-.26,4.38-.62,6.59-.75a3.85,3.85,0,0,1,3.6,1.5c.75,1.18,0,2.18-1,3a16.76,16.76,0,0,1-6.72,3.61c-3.81,1.06-7.77,1.72-11.58,2.91C193.65,450.46,189.78,447.73,190.22,444.61Z" transform="translate(-98.16 -173.15)"/><path class="cls-45" d="M108.83,463.6a10.52,10.52,0,0,1-1.11-5.08c-.16-4-.56-7.9-.54-11.85,0-2.7-2-3.77-4.82-4.52a7.55,7.55,0,0,1,8.84-.78c3.36,1.78,4.35,4.27,3.06,7.17-.51,1.15-1.09,2.28-1.64,3.41-1.29,2.76-1.93,5.38.63,8.09C115,461.92,113.47,463.1,108.83,463.6Z" transform="translate(-98.16 -173.15)"/><path class="cls-47" d="M336.81,403.8q.07,20.28.14,40.55c0,1.73,0,3.46,0,5.18-1.39-1.73-.42-3.67-.82-5.49q0-17.39,0-34.78C336.51,407.46,335.79,405.57,336.81,403.8Z" transform="translate(-98.16 -173.15)"/><path class="cls-48" d="M280.48,285.47c-1.25-.2-2.35-.57-2.82-1.59C278.89,284.11,280.5,283.93,280.48,285.47Z" transform="translate(-98.16 -173.15)"/><path class="cls-49" d="M624.8,309.63c-1.81-1.47-2.31-3.86-5.28-4.53-1.27-.93-1.29-1.81.16-2.63,2.85,1.63,6.32,2.51,8.88,4.48Z" transform="translate(-98.16 -173.15)"/><path class="cls-50" d="M619.69,302.46l-.16,2.63a34.84,34.84,0,0,0-8.71.14c1.77-5.73,1.8-11.6,2.3-17.43a96.45,96.45,0,0,0,1.64-14.23c.08-1.25.14-2.42,1.45-3.31l1.33.11c-.11,9.51,1.18,19,1.75,28.46C619.36,300,619.55,301.25,619.69,302.46Z" transform="translate(-98.16 -173.15)"/><path class="cls-51" d="M622.7,272.29a2.63,2.63,0,0,1-2.3,1.37C620.19,272.51,621.41,272.65,622.7,272.29Z" transform="translate(-98.16 -173.15)"/><path class="cls-52" d="M611.32,283.95l-1.48,1c0-3.49-2.93-6.45-2.42-10.11Z" transform="translate(-98.16 -173.15)"/><path class="cls-53" d="M382.85,384.59l.32-15.74c4,2.32,8.84,1.63,13.28,2.36a22.2,22.2,0,0,1,7.63,2.32c4.75,2.74,4.68,6.78-.31,9.25C397.22,386,390.12,386,382.85,384.59Z" transform="translate(-98.16 -173.15)"/><path class="cls-53" d="M486,366.86l.24,15.36c1,1.08,1.05,2.11-.23,3.09l-21.53-9.53c-.77-.34-1.84-.6-1.78-1.45.07-1,1.29-1.24,2.27-1.39,2.7-.4,5.42-.81,8.15-1C478.37,371.58,482.85,370.24,486,366.86Z" transform="translate(-98.16 -173.15)"/><path class="cls-18" d="M470.3,407.33l-5.62-4.87c-.77-1.28-3.36-2.68.94-3.38,1.52-.25.52-2,.29-3-.41-1.77-.52-3.46,1.17-4.89a7.12,7.12,0,0,1,5.67-1.63c2.32.28,3.13,1.62,3.73,3.16a30.22,30.22,0,0,0,1.61,3.08c1.66,1.09,3.57,2.11,1.8,4.1C474.09,400.52,471.23,402.74,470.3,407.33Z" transform="translate(-98.16 -173.15)"/><path class="cls-54" d="M479.88,399.88l-1.8-4.1c2.75-.29,4.69-2,7.27-2.53l3.1,3.58a13.36,13.36,0,0,1,4,5.85c.33,1.2.64,2.44-1.24,3.15Z" transform="translate(-98.16 -173.15)"/><path class="cls-55" d="M486,385.31l.23-3.09a4.94,4.94,0,0,1,2.53,1.39l-1.92,1.93Z" transform="translate(-98.16 -173.15)"/><path class="cls-56" d="M491.2,405.83c.34-3.23-2.76-5.83-2.74-9,2.13.47,3.32,1.89,4.87,2.93a7.89,7.89,0,0,0,4.43,1.58c3.45.14,5.14,2.75,2.94,4.66a3.39,3.39,0,0,0-1.13,3.81C495.71,409.81,493.34,408,491.2,405.83Z" transform="translate(-98.16 -173.15)"/></svg>